<svg id="Layer_1" data-name="Layer 1" xmlns="http://www.w3.org/2000/svg" viewBox="0 0 64.36 7.17"><defs><style>.cls-1{fill:#e39586;}.cls-2{fill:#ec4829;stroke:#ec4829;stroke-miterlimit:10;stroke-width:0.1px;}</style></defs><path class="cls-1" d="M32,79.05a1.65,1.65,0,0,0,1.09-.34,1.17,1.17,0,0,0,.42-1,1.23,1.23,0,0,0-.31-.86,2.25,2.25,0,0,0-1.09-.56l-.7-.2a2.23,2.23,0,0,1-1.17-.72,1.92,1.92,0,0,1-.41-1.23,1.89,1.89,0,0,1,.23-.91,1.61,1.61,0,0,1,.7-.69A2.37,2.37,0,0,1,32,72.3a2.61,2.61,0,0,1,1.3.29,1.62,1.62,0,0,1,.69.78,1.93,1.93,0,0,1,.09,1l-.85.18A2.12,2.12,0,0,0,33,73.13a1.19,1.19,0,0,0-1.1-.51,1.37,1.37,0,0,0-1,.33,1.26,1.26,0,0,0-.35,1,1.32,1.32,0,0,0,.28.85,2,2,0,0,0,1,.55l.7.2a2,2,0,0,1,1.69,2,1.87,1.87,0,0,1-.25,1,1.72,1.72,0,0,1-.75.68,2.73,2.73,0,0,1-1.25.25,3.1,3.1,0,0,1-1-.16,1.83,1.83,0,0,1-.82-.56,2.23,2.23,0,0,1-.45-1.09l.61-.2a2.14,2.14,0,0,0,.29,1,1.36,1.36,0,0,0,.61.51A2,2,0,0,0,32,79.05Z" transform="translate(-29.71 -72.23)"/><path class="cls-1" d="M35.28,72.67V72.4h2.44v.27l-.56,0c-.11,0-.17,0-.19.08a1.52,1.52,0,0,0,0,.42v5.23a1.52,1.52,0,0,0,0,.42s.08.06.19.08l.56.06v.26H35.28V79l.56-.06c.1,0,.17,0,.19-.08a1.52,1.52,0,0,0,0-.42V73.22a1.52,1.52,0,0,0,0-.42s-.09-.07-.19-.08Z" transform="translate(-29.71 -72.23)"/><path class="cls-1" d="M46.4,79v.26H44V79l.56-.06c.1,0,.17,0,.19-.09a1.48,1.48,0,0,0,0-.41V73l-2.1,5.49H42L39.84,73v5.48a1.48,1.48,0,0,0,0,.41s.08.07.19.09l.56.06v.26H38.69V79l.55-.06c.11,0,.17,0,.19-.09a1.48,1.48,0,0,0,0-.41V73.22a1.48,1.48,0,0,0,0-.41s-.08-.08-.19-.09l-.55,0V72.4h1.85l2,5.3,2-5.3h1.8v.27l-.56,0c-.11,0-.17,0-.19.09a1.48,1.48,0,0,0,0,.41v5.23a1.48,1.48,0,0,0,0,.41s.08.07.19.09Z" transform="translate(-29.71 -72.23)"/><path class="cls-1" d="M52.88,75.45v.76a3.64,3.64,0,0,1-.68,2.32,2.67,2.67,0,0,1-3.89,0,3.64,3.64,0,0,1-.67-2.32v-.76a3.59,3.59,0,0,1,.67-2.31,2.67,2.67,0,0,1,3.89,0A3.59,3.59,0,0,1,52.88,75.45Zm-1-.51a3,3,0,0,0-.41-1.79,1.72,1.72,0,0,0-2.48,0,2.92,2.92,0,0,0-.42,1.79v1.77a3,3,0,0,0,.42,1.8,1.69,1.69,0,0,0,2.48,0,3,3,0,0,0,.41-1.8Z" transform="translate(-29.71 -72.23)"/><path class="cls-1" d="M58.28,72.67V72.4h1.93v.27l-.55,0c-.11,0-.18,0-.2.09a1.48,1.48,0,0,0,0,.41v6h-.49l-3.68-6.21v5.39a1.48,1.48,0,0,0,0,.41s.08.07.19.09L56,79v.26H54.11V79l.55-.06c.11,0,.18,0,.2-.09a1.48,1.48,0,0,0,0-.41V73.22a1.48,1.48,0,0,0,0-.41s-.09-.08-.2-.09l-.55,0V72.4h1.75l3.2,5.41V73.22a1.48,1.48,0,0,0,0-.41s-.08-.08-.19-.09Z" transform="translate(-29.71 -72.23)"/><path class="cls-1" d="M65.67,77.62h.26v1.65H61.09V79l.56-.06c.1,0,.17,0,.19-.08a1.52,1.52,0,0,0,0-.42V73.22a1.52,1.52,0,0,0,0-.42s-.09-.07-.19-.08l-.56,0V72.4H65.8V74h-.25L65.26,73a1.1,1.1,0,0,0-.07-.17s-.07-.06-.14-.07l-.34,0h-2v2.92h1.7a.2.2,0,0,0,.13-.07.52.52,0,0,0,.07-.18l.19-.76h.26V77h-.26l-.19-.76a.52.52,0,0,0-.07-.18.17.17,0,0,0-.13-.07l-.35,0H62.75v3h2.08l.34,0c.07,0,.12,0,.14-.07a.84.84,0,0,0,.07-.18Z" transform="translate(-29.71 -72.23)"/><path class="cls-2" d="M69.93,79.35A3,3,0,0,1,68.35,79a2.64,2.64,0,0,1-1-1.13,4.09,4.09,0,0,1-.33-1.7v-.64a4.4,4.4,0,0,1,.3-1.69,2.43,2.43,0,0,1,.89-1.12,2.62,2.62,0,0,1,1.5-.4,2.5,2.5,0,0,1,1.28.3,1.86,1.86,0,0,1,.76.79A1.91,1.91,0,0,1,72,74.43l-1.18.3a2.6,2.6,0,0,0-.21-1.56,1,1,0,0,0-.91-.54,1.13,1.13,0,0,0-1,.55A3.53,3.53,0,0,0,68.33,75v1.65a3.11,3.11,0,0,0,.4,1.8,1.35,1.35,0,0,0,1.2.56,1.59,1.59,0,0,0,.62-.12,1.14,1.14,0,0,0,.49-.42,1.82,1.82,0,0,0,.24-.84l.73.19a2,2,0,0,1-.45.91,1.81,1.81,0,0,1-.74.49A2.6,2.6,0,0,1,69.93,79.35Z" transform="translate(-29.71 -72.23)"/><path class="cls-2" d="M77.36,77.51h.28v1.74h-4.8V79l.56-.07c.1,0,.17,0,.19-.09a1.48,1.48,0,0,0,0-.41V73.23a1.48,1.48,0,0,0,0-.41s-.09-.07-.19-.09l-.56-.07v-.28h2.77v.28l-.56.07c-.1,0-.17,0-.19.09a1.48,1.48,0,0,0,0,.41V78.9h1.66l.34,0a.19.19,0,0,0,.14-.07.63.63,0,0,0,.06-.17Z" transform="translate(-29.71 -72.23)"/><path class="cls-2" d="M79.67,79v.28h-2V79l.56-.07a.5.5,0,0,0,.16-.05s.06,0,.09-.12.06-.18.11-.33l1.93-6h.87l1.94,6c.05.15.09.26.11.33s.06.11.1.12l.15.05.56.07v.28H81.51V79l.56-.07c.1,0,.16,0,.17-.09a1.37,1.37,0,0,0-.09-.41l-.39-1.25H79.43L79,78.4a2.88,2.88,0,0,0-.09.41s.07.08.18.09Zm-.12-2.17h2.1l-1-3.36Z" transform="translate(-29.71 -72.23)"/><path class="cls-2" d="M84.67,72.66v-.28h3.06a2.48,2.48,0,0,1,1.63.48,1.54,1.54,0,0,1,.58,1.27v.23a1.61,1.61,0,0,1-.33,1,1.84,1.84,0,0,1-1,.61l1.26,2.4.18.33q.06.1.12.12a.44.44,0,0,0,.15.05l.46.07v.28H88.93L87.4,76.12h-.73V78.4a1.48,1.48,0,0,0,0,.41s.08.08.19.09l.55.07v.28H84.67V79l.56-.07c.11,0,.17,0,.19-.09a1.48,1.48,0,0,0,0-.41V73.23a1.48,1.48,0,0,0,0-.41s-.08-.07-.19-.09Zm3.06.07H86.67v3h1.06a.87.87,0,0,0,.68-.28,1.64,1.64,0,0,0,.24-1V74a1.58,1.58,0,0,0-.24-1A.87.87,0,0,0,87.73,72.73Z" transform="translate(-29.71 -72.23)"/><path class="cls-2" d="M91.25,72.66v-.28H94v.28l-.55.07c-.11,0-.18,0-.2.09a1.48,1.48,0,0,0,0,.41V78.4a1.48,1.48,0,0,0,0,.41s.09.08.2.09L94,79v.28H91.25V79l.56-.07c.11,0,.17,0,.19-.09a1.48,1.48,0,0,0,0-.41V73.23a1.48,1.48,0,0,0,0-.41s-.08-.07-.19-.09Z" transform="translate(-29.71 -72.23)"/></svg>